<svg width="29" height="34" viewBox="0 0 29 34" fill="none" xmlns="http://www.w3.org/2000/svg">
<path d="M21.4033 8.05078C18.3806 8.05078 17.1032 9.49315 14.9981 9.49315C12.8398 9.49315 11.1935 8.06128 8.57416 8.06128C6.01028 8.06128 3.27622 9.62659 1.53997 12.2932C-0.897963 16.0535 -0.484143 23.1357 3.46439 29.1691C4.87677 31.3289 6.76295 33.7511 9.23687 33.7773H9.28185C11.4319 33.7773 12.0706 32.3694 15.0296 32.3529H15.0746C17.9893 32.3529 18.5741 33.7691 20.7151 33.7691H20.7601C23.234 33.7428 25.2214 31.059 26.6338 28.9074C27.6503 27.3601 28.0282 26.5835 28.8078 24.833C23.0961 22.6649 22.1785 14.5677 27.8273 11.4633C26.103 9.30424 23.6801 8.05378 21.3958 8.05378L21.4033 8.05078Z" fill="white"/>
<path d="M20.7376 0.189453C18.9384 0.31165 16.8393 1.45715 15.6099 2.95275C14.4944 4.30816 13.5768 6.31878 13.9366 8.26868H14.0805C15.9967 8.26868 17.9578 7.11493 19.1033 5.63658C20.2069 4.22944 21.0435 2.23531 20.7376 0.189453Z" fill="white"/>
</svg>
