<svg width="15" height="16" viewBox="0 0 15 16" fill="none" xmlns="http://www.w3.org/2000/svg">
<path d="M7.54868 0.798828C9.49697 0.798828 9.74006 0.806028 10.5045 0.842028C11.2682 0.878027 11.788 0.998267 12.2455 1.17683C12.7188 1.3597 13.1175 1.60738 13.5162 2.00698C13.8808 2.3669 14.163 2.80228 14.343 3.28281C14.5201 3.74145 14.6406 4.26416 14.6764 5.03096C14.7101 5.79847 14.7194 6.04255 14.7194 7.99877C14.7194 9.955 14.7123 10.1991 14.6764 10.9666C14.6406 11.7334 14.5201 12.2554 14.343 12.7147C14.1635 13.1955 13.8813 13.631 13.5162 13.9906C13.1576 14.3566 12.724 14.6398 12.2455 14.8207C11.7887 14.9986 11.2682 15.1195 10.5045 15.1555C9.74006 15.1894 9.49697 15.1987 7.54868 15.1987C5.60039 15.1987 5.3573 15.1915 4.5929 15.1555C3.82921 15.1195 3.30933 14.9986 2.85184 14.8207C2.37307 14.6403 1.93938 14.357 1.58118 13.9906C1.21648 13.6307 0.934331 13.1953 0.754394 12.7147C0.57656 12.2561 0.456808 11.7334 0.420954 10.9666C0.387252 10.1991 0.37793 9.955 0.37793 7.99877C0.37793 6.04255 0.3851 5.79847 0.420954 5.03096C0.456808 4.26344 0.57656 3.74217 0.754394 3.28281C0.933832 2.80198 1.21605 2.36649 1.58118 2.00698C1.93948 1.64067 2.37314 1.35735 2.85184 1.17683C3.30933 0.998267 3.8285 0.878027 4.5929 0.842028C5.3573 0.808188 5.60039 0.798828 7.54868 0.798828ZM7.54868 4.3988C6.59778 4.3988 5.68583 4.77808 5.01344 5.45321C4.34105 6.12833 3.96331 7.044 3.96331 7.99877C3.96331 8.95355 4.34105 9.86921 5.01344 10.5443C5.68583 11.2195 6.59778 11.5987 7.54868 11.5987C8.49958 11.5987 9.41154 11.2195 10.0839 10.5443C10.7563 9.86921 11.1341 8.95355 11.1341 7.99877C11.1341 7.044 10.7563 6.12833 10.0839 5.45321C9.41154 4.77808 8.49958 4.3988 7.54868 4.3988ZM12.2097 4.2188C12.2097 3.98011 12.1152 3.75119 11.9471 3.58241C11.779 3.41363 11.5511 3.31881 11.3133 3.31881C11.0756 3.31881 10.8476 3.41363 10.6795 3.58241C10.5114 3.75119 10.417 3.98011 10.417 4.2188C10.417 4.4575 10.5114 4.68641 10.6795 4.85519C10.8476 5.02398 11.0756 5.1188 11.3133 5.1188C11.5511 5.1188 11.779 5.02398 11.9471 4.85519C12.1152 4.68641 12.2097 4.4575 12.2097 4.2188ZM7.54868 5.83879C8.11922 5.83879 8.6664 6.06636 9.06983 6.47143C9.47326 6.87651 9.69991 7.42591 9.69991 7.99877C9.69991 8.57164 9.47326 9.12104 9.06983 9.52611C8.6664 9.93119 8.11922 10.1588 7.54868 10.1588C6.97814 10.1588 6.43097 9.93119 6.02754 9.52611C5.6241 9.12104 5.39746 8.57164 5.39746 7.99877C5.39746 7.42591 5.6241 6.87651 6.02754 6.47143C6.43097 6.06636 6.97814 5.83879 7.54868 5.83879Z" fill="#1F2ADE"/>
</svg>
