<svg width="15" height="14" viewBox="0 0 15 14" fill="none" xmlns="http://www.w3.org/2000/svg">
<path d="M3.52523 1.83934C3.52503 2.2415 3.36573 2.6271 3.08237 2.91132C2.79902 3.19555 2.41482 3.35511 2.0143 3.35491C1.61378 3.35471 1.22974 3.19476 0.946668 2.91025C0.663597 2.62574 0.504683 2.23998 0.504883 1.83783C0.505083 1.43567 0.664382 1.05007 0.947736 0.76585C1.23109 0.481626 1.61529 0.322065 2.01581 0.322266C2.41633 0.322467 2.80037 0.482414 3.08344 0.766922C3.36651 1.05143 3.52543 1.43719 3.52523 1.83934ZM3.57053 4.47774H0.550188V13.9699H3.57053V4.47774ZM8.34268 4.47774H5.33743V13.9699H8.31247V8.98879C8.31247 6.21393 11.9142 5.95615 11.9142 8.98879V13.9699H14.8968V7.9577C14.8968 3.27985 9.56591 3.45423 8.31247 5.75145L8.34268 4.47774Z" fill="#1F2ADE"/>
</svg>
