<svg width="20" height="17" viewBox="0 0 20 17" fill="none" xmlns="http://www.w3.org/2000/svg">
<path d="M19.995 2.22813C19.2691 2.56166 18.4868 2.78084 17.6761 2.88566C18.5056 2.3806 19.1466 1.58014 19.4482 0.617675C18.6659 1.09414 17.7987 1.42767 16.8843 1.61826C16.1397 0.798733 15.0933 0.322266 13.9056 0.322266C11.6905 0.322266 9.88067 2.1519 9.88067 4.41035C9.88067 4.73435 9.91837 5.04882 9.98436 5.34423C6.62864 5.1727 3.64054 3.54318 1.65161 1.07508C1.30284 1.67543 1.10489 2.3806 1.10489 3.12389C1.10489 4.54376 1.81186 5.80164 2.9053 6.51634C2.23604 6.51634 1.61391 6.32575 1.06719 6.03987V6.06846C1.06719 8.05056 2.46226 9.70867 4.3098 10.0803C3.71663 10.2444 3.09391 10.2672 2.49054 10.147C2.74656 10.9594 3.24797 11.6702 3.92428 12.1796C4.60059 12.6889 5.41779 12.9712 6.26102 12.9868C4.83166 14.1307 3.05988 14.749 1.23686 14.7402C0.916371 14.7402 0.595881 14.7211 0.275391 14.683C2.06637 15.8456 4.19668 16.5221 6.47782 16.5221C13.9056 16.5221 17.9872 10.29 17.9872 4.88682C17.9872 4.70576 17.9872 4.53423 17.9778 4.35318C18.7696 3.78142 19.4482 3.05719 19.995 2.22813Z" fill="#1F2ADE"/>
</svg>
