<svg width="32" height="35" viewBox="0 0 32 35" fill="none" xmlns="http://www.w3.org/2000/svg">
<path d="M0 2.09235V32.0016C0.000200376 32.0665 0.0195543 32.1299 0.055635 32.1838C0.0917157 32.2378 0.142917 32.2799 0.202818 32.3048C0.26272 32.3298 0.328655 32.3365 0.392355 32.3241C0.456056 32.3117 0.514686 32.2808 0.560894 32.2353L16.1343 17.0478L0.560894 1.85871C0.514686 1.81315 0.456056 1.78225 0.392355 1.76988C0.328655 1.75751 0.26272 1.76422 0.202818 1.78917C0.142917 1.81413 0.0917157 1.85621 0.055635 1.91014C0.0195543 1.96408 0.000200376 2.02746 0 2.09235ZM22.6641 10.8071L3.13705 0.0489341L3.12487 0.0420847C2.78849 -0.140567 2.46885 0.314541 2.74435 0.579386L18.0514 15.2159L22.6641 10.8071ZM2.74587 33.5161C2.46885 33.781 2.78849 34.2361 3.1264 34.0534L3.13857 34.0466L22.6641 23.2884L18.0514 18.8781L2.74587 33.5161ZM30.547 15.1451L25.0941 12.142L19.9669 17.0478L25.0941 21.9512L30.547 18.9504C32.0303 18.1307 32.0303 15.9648 30.547 15.1451Z" fill="white"/>
</svg>
