<svg width="126" height="39" viewBox="0 0 126 39" fill="none" xmlns="http://www.w3.org/2000/svg">
<path fill-rule="evenodd" clip-rule="evenodd" d="M38.8391 19.4195C38.8391 30.1446 30.1446 38.8391 19.4195 38.8391C8.69442 38.8391 0 30.1446 0 19.4195C0 8.69442 8.69442 0 19.4195 0C30.1446 0 38.8391 8.69442 38.8391 19.4195ZM19.3748 13.7988H13.9576L19.3748 8.2793V13.7988ZM25.0395 16.6828C25.0395 15.1558 23.8021 13.918 22.2756 13.918C20.7492 13.918 19.5118 15.1558 19.5118 16.6828V16.7053C19.5118 18.2323 20.7492 19.4702 22.2756 19.4702C23.8021 19.4702 25.0395 18.2323 25.0395 16.7053V16.6828ZM24.9802 25.0304H19.3748V19.5129H13.8798V13.8789L8.35211 19.5129V25.0304H13.8614V30.5847H19.3748L24.9802 25.0304ZM30.5548 19.5117L25.0598 24.9515V19.5117H30.5548Z" fill="#1F2ADE"/>
<path d="M44.9099 28.3796V13.0742H47.8725V28.3796H44.9099Z" fill="#1F2ADE"/>
<path d="M62.7732 19.8752V28.3781H59.7687V20.8541C59.7687 20.258 59.7189 19.6459 59.6192 19.0179C59.5215 18.3899 59.3321 17.8058 59.053 17.2675C58.7739 16.7292 58.3812 16.2946 57.8768 15.9636C57.3704 15.6327 56.7125 15.4672 55.8991 15.4672C55.3707 15.4672 54.8703 15.5549 54.3978 15.7304C53.9253 15.9058 53.5126 16.1869 53.1578 16.5737C52.8029 16.9604 52.5238 17.4708 52.3224 18.1048C52.1191 18.7368 52.0174 19.5064 52.0174 20.4135V28.3781H49.0129V13.0728H51.6625V14.909C52.0872 14.3707 52.5975 13.9181 53.1936 13.5553C54.1666 12.9592 55.3428 12.6621 56.7224 12.6621C57.7791 12.6621 58.6682 12.8316 59.386 13.1725C60.1037 13.5134 60.6878 13.958 61.1364 14.5122C61.585 15.0645 61.9279 15.6666 62.1631 16.3185C62.4004 16.9704 62.5599 17.6084 62.6456 18.2324C62.7313 18.8544 62.7732 19.4027 62.7732 19.8752Z" fill="#1F2ADE"/>
<path d="M72.8967 25.8708V28.3788C71.9317 28.5682 70.9867 28.6479 70.0617 28.62C69.1346 28.5921 68.3093 28.4127 67.5816 28.0817C66.8539 27.7508 66.3056 27.2305 65.9368 26.5227C65.6059 25.8907 65.4304 25.2448 65.4065 24.5888C65.3826 23.9309 65.3706 23.1873 65.3706 22.3559V15.4539H63.1377V13.0735H65.3706V10.0371H68.3471V11.5144L66.4711 13.0735H71.9676V15.4539H68.3471V22.2144C68.3471 22.8284 68.3531 23.3627 68.3691 23.8153C68.383 24.2699 68.4787 24.6526 68.6581 24.9637C68.9991 25.5498 69.5393 25.8827 70.281 25.9625C71.0226 26.0442 71.8939 26.0123 72.8967 25.8708Z" fill="#1F2ADE"/>
<path d="M87.7613 21.5621C87.8749 19.7299 87.6596 18.147 87.1173 16.8152C86.575 15.4834 85.7537 14.4547 84.6591 13.733C83.5626 13.0093 82.2348 12.6484 80.6758 12.6484C79.1168 12.6484 77.8747 12.9834 76.7503 13.6552C75.6259 14.3251 74.7506 15.2741 74.1226 16.5022C73.4926 17.7303 73.1796 19.1817 73.1796 20.8544C73.1796 22.4313 73.4986 23.8189 74.1366 25.0131C74.7746 26.2073 75.6657 27.1384 76.8141 27.8043C77.9624 28.4701 79.2962 28.8031 80.8173 28.8031C82.3385 28.8031 83.6483 28.4283 84.8565 27.6767C86.0667 26.927 86.9678 25.8664 87.5639 24.4948L84.6591 23.5737C84.2803 24.3592 83.754 24.9613 83.0782 25.382C82.4023 25.8026 81.6028 26.012 80.6758 26.012C79.2683 26.012 78.1917 25.5514 77.4461 24.6303C76.828 23.8688 76.4652 22.846 76.3595 21.5621H87.7613ZM76.4273 19.2515C76.5828 18.1888 76.9217 17.3296 77.4461 16.6736C78.1917 15.7386 79.3062 15.2701 80.7894 15.2701C82.1312 15.2701 83.13 15.6948 83.7879 16.546C84.2823 17.186 84.5953 18.0872 84.7289 19.2515H76.4273Z" fill="#1F2ADE"/>
<path d="M96.9426 13.0726V15.8498C96.4402 15.7182 95.8859 15.6803 95.2759 15.7382C94.6678 15.794 94.1076 15.9874 93.5972 16.3183C93.1147 16.6293 92.7359 17.0081 92.4568 17.4527C92.1777 17.8953 91.9763 18.3897 91.8547 18.932C91.7311 19.4763 91.6693 20.0504 91.6693 20.6545V28.378H88.6808V13.0726H91.3164V15.5208C91.4281 15.3235 91.5497 15.1321 91.6833 14.9507C91.9863 14.54 92.3352 14.201 92.7319 13.9379C93.1207 13.6548 93.5533 13.4335 94.0298 13.278C94.5063 13.1225 94.9947 13.0288 95.4971 12.9949C95.9976 12.961 96.478 12.9869 96.9426 13.0726Z" fill="#1F2ADE"/>
<path d="M110.479 17.1541C110.424 16.5979 110.272 16.0676 110.027 15.5672C109.554 14.5564 108.809 13.8167 107.794 13.3502C106.779 12.8817 105.585 12.6484 104.215 12.6484C102.449 12.6484 101.033 13.0352 99.9708 13.8107C98.9082 14.5843 98.1885 15.629 97.8097 16.9428L100.573 17.7921C100.838 16.9328 101.307 16.3168 101.976 15.944C102.648 15.5692 103.384 15.3837 104.187 15.3837C105.463 15.3837 106.363 15.6748 106.887 16.255C107.343 16.7614 107.597 17.505 107.638 18.4839C107.06 18.5656 106.48 18.6454 105.896 18.7271C104.945 18.8607 104.04 19.0022 103.181 19.1538C102.321 19.3033 101.552 19.4787 100.872 19.6781C100.086 19.9333 99.4266 20.2662 98.8863 20.6769C98.348 21.0876 97.9433 21.586 97.6682 22.1722C97.395 22.7583 97.2575 23.4381 97.2575 24.2117C97.2575 25.043 97.4529 25.8066 97.8456 26.5004C98.2384 27.1962 98.8165 27.7524 99.5821 28.1731C100.348 28.5938 101.297 28.8031 102.431 28.8031C103.856 28.8031 105.059 28.518 106.038 27.9458C106.769 27.5192 107.403 26.9251 107.944 26.1615V28.3784H110.565V18.9544C110.565 18.3124 110.537 17.7123 110.479 17.1541ZM107.581 21.8173C107.559 22.3835 107.465 22.8939 107.306 23.3484C107.192 23.8488 106.951 24.3313 106.582 24.7938C106.213 25.2564 105.727 25.6371 105.122 25.9342C104.518 26.2313 103.795 26.3808 102.955 26.3808C102.321 26.3808 101.801 26.2811 101.396 26.0837C100.99 25.8844 100.687 25.6172 100.489 25.2823C100.29 24.9473 100.19 24.5805 100.19 24.1838C100.19 23.787 100.284 23.4322 100.467 23.1491C100.651 22.866 100.902 22.6247 101.219 22.4274C101.536 22.228 101.897 22.0585 102.303 21.917C102.784 21.7655 103.334 21.6359 103.954 21.5262C104.572 21.4186 105.264 21.3069 106.03 21.1933C106.522 21.1195 107.046 21.0418 107.609 20.958C107.605 21.2072 107.595 21.4943 107.581 21.8173Z" fill="#1F2ADE"/>
<path d="M111.119 28.3796L116.845 20.6422L111.247 13.0742H114.762L118.574 18.3315L122.344 13.0742H125.859L120.26 20.6422L126 28.3796H122.471L118.574 22.9508L114.648 28.3796H111.119Z" fill="#1F2ADE"/>
</svg>
