<svg width="15" height="14" viewBox="0 0 15 14" fill="none" xmlns="http://www.w3.org/2000/svg">
<path d="M3.69279 1.46978C3.6926 1.85939 3.53763 2.23298 3.262 2.50834C2.98636 2.7837 2.61263 2.93829 2.22301 2.93809C1.8334 2.9379 1.45982 2.78293 1.18445 2.5073C0.909092 2.23166 0.754505 1.85793 0.7547 1.46831C0.754895 1.0787 0.909855 0.705116 1.18549 0.429754C1.46113 0.154392 1.83486 -0.000194624 2.22448 1.83896e-07C2.61409 0.000194991 2.98767 0.155156 3.26304 0.430793C3.5384 0.70643 3.69299 1.08016 3.69279 1.46978ZM3.73686 4.02592H0.798771V13.2221H3.73686V4.02592ZM8.37904 4.02592H5.45564V13.2221H8.34966V8.39633C8.34966 5.70798 11.8533 5.45824 11.8533 8.39633V13.2221H14.7547V7.39738C14.7547 2.86537 9.56897 3.03431 8.34966 5.25992L8.37904 4.02592Z" fill="white"/>
</svg>
