<svg width="126" height="40" viewBox="0 0 126 40" fill="none" xmlns="http://www.w3.org/2000/svg">
<path fill-rule="evenodd" clip-rule="evenodd" d="M38.8391 19.8191C38.8391 30.6203 30.1446 39.3764 19.4195 39.3764C8.69442 39.3764 0 30.6203 0 19.8191C0 9.01784 8.69442 0.261719 19.4195 0.261719C30.1446 0.261719 38.8391 9.01784 38.8391 19.8191ZM19.3749 14.158H13.9576L19.3749 8.5993V14.158ZM25.0395 17.0619C25.0395 15.5241 23.8021 14.2774 22.2756 14.2774C20.7492 14.2774 19.5118 15.5241 19.5118 17.0619V17.0846C19.5118 18.6224 20.7492 19.8691 22.2756 19.8691C23.8021 19.8691 25.0395 18.6224 25.0395 17.0846V17.0619ZM24.9802 25.469H19.3748V19.9123H13.8798V14.2383L8.35212 19.9123V25.469H13.8614V31.0627H19.3748L24.9802 25.469ZM30.5548 19.9123L25.0598 25.3907V19.9123H30.5548Z" fill="white"/>
<path d="M44.9099 28.8417V13.4277H47.8725V28.8417H44.9099Z" fill="white"/>
<path d="M62.7732 20.2779V28.8412H59.7687V21.2638C59.7687 20.6634 59.7189 20.047 59.6192 19.4146C59.5215 18.7821 59.3321 18.1938 59.053 17.6517C58.7739 17.1096 58.3812 16.6719 57.8768 16.3386C57.3704 16.0053 56.7125 15.8387 55.8991 15.8387C55.3707 15.8387 54.8703 15.927 54.3978 16.1037C53.9253 16.2804 53.5126 16.5635 53.1578 16.953C52.8029 17.3425 52.5238 17.8565 52.3224 18.495C52.1191 19.1315 52.0174 19.9065 52.0174 20.82V28.8412H49.0129V13.4273H51.6625V15.2765C52.0872 14.7344 52.5975 14.2786 53.1936 13.9132C54.1666 13.3128 55.3428 13.0137 56.7224 13.0137C57.7791 13.0137 58.6682 13.1843 59.386 13.5277C60.1037 13.871 60.6878 14.3187 61.1364 14.8769C61.585 15.4331 61.9279 16.0394 62.1631 16.696C62.4004 17.3525 62.5599 17.995 62.6456 18.6235C62.7313 19.2499 62.7732 19.8021 62.7732 20.2779Z" fill="white"/>
<path d="M72.8967 26.3152V28.841C71.9317 29.0317 70.9867 29.112 70.0617 29.0839C69.1346 29.0558 68.3093 28.8751 67.5816 28.5418C66.8539 28.2085 66.3056 27.6845 65.9368 26.9717C65.6059 26.3352 65.4304 25.6847 65.4065 25.0241C65.3826 24.3616 65.3706 23.6127 65.3706 22.7754V15.8244H63.1377V13.427H65.3706V10.3691H68.3471V11.8569L66.4711 13.427H71.9676V15.8244H68.3471V22.6328C68.3471 23.2512 68.3531 23.7893 68.3691 24.2451C68.383 24.7029 68.4787 25.0884 68.6581 25.4016C68.9991 25.9919 69.5393 26.3272 70.281 26.4075C71.0226 26.4899 71.8939 26.4577 72.8967 26.3152Z" fill="white"/>
<path d="M87.7613 21.9769C87.875 20.1317 87.6597 18.5375 87.1174 17.1963C86.5751 15.8551 85.7537 14.8191 84.6592 14.0922C83.5627 13.3634 82.2349 13 80.6759 13C79.1168 13 77.8748 13.3373 76.7503 14.0139C75.6259 14.6886 74.7507 15.6443 74.1227 16.8811C73.4927 18.1179 73.1797 19.5796 73.1797 21.2641C73.1797 22.8523 73.4987 24.2498 74.1366 25.4524C74.7746 26.6551 75.6658 27.5928 76.8141 28.2634C77.9625 28.934 79.2962 29.2693 80.8174 29.2693C82.3386 29.2693 83.6484 28.8918 84.8566 28.1349C86.0667 27.3799 86.9679 26.3118 87.564 24.9304L84.6592 24.0028C84.2804 24.7939 83.7541 25.4002 83.0782 25.8239C82.4024 26.2475 81.6029 26.4584 80.6759 26.4584C79.2683 26.4584 78.1918 25.9945 77.4461 25.0669C76.8281 24.3 76.4652 23.27 76.3596 21.9769H87.7613ZM76.4274 19.6499C76.5829 18.5797 76.9218 17.7143 77.4461 17.0538C78.1918 16.1121 79.3062 15.6403 80.7895 15.6403C82.1312 15.6403 83.1301 16.0679 83.788 16.9253C84.2824 17.5698 84.5954 18.4773 84.729 19.6499H76.4274Z" fill="white"/>
<path d="M96.9425 13.4268V16.2237C96.4401 16.0912 95.8859 16.053 95.2758 16.1112C94.6678 16.1675 94.1075 16.3622 93.5972 16.6955C93.1147 17.0087 92.7359 17.3902 92.4568 17.838C92.1777 18.2837 91.9763 18.7816 91.8547 19.3277C91.7311 19.8759 91.6693 20.4541 91.6693 21.0625V28.8408H88.6808V13.4268H91.3164V15.8924C91.4281 15.6936 91.5497 15.5009 91.6832 15.3182C91.9863 14.9045 92.3352 14.5632 92.7319 14.2982C93.1207 14.0131 93.5533 13.7902 94.0298 13.6336C94.5063 13.477 94.9947 13.3826 95.4971 13.3485C95.9975 13.3144 96.478 13.3405 96.9425 13.4268Z" fill="white"/>
<path d="M110.479 17.5377C110.424 16.9775 110.272 16.4434 110.027 15.9394C109.554 14.9215 108.809 14.1766 107.794 13.7068C106.779 13.2349 105.585 13 104.215 13C102.449 13 101.033 13.3895 99.9708 14.1706C98.9082 14.9496 98.1885 16.0017 97.8097 17.3248L100.573 18.1802C100.838 17.3148 101.307 16.6944 101.976 16.3189C102.648 15.9414 103.384 15.7547 104.187 15.7547C105.463 15.7547 106.363 16.0479 106.887 16.6321C107.343 17.1421 107.597 17.891 107.638 18.8769C107.06 18.9592 106.48 19.0395 105.896 19.1218C104.945 19.2563 104.04 19.3989 103.181 19.5515C102.321 19.7021 101.552 19.8788 100.872 20.0795C100.086 20.3365 99.4265 20.6718 98.8863 21.0855C98.348 21.4991 97.9433 22.001 97.6681 22.5913C97.395 23.1816 97.2574 23.8663 97.2574 24.6453C97.2574 25.4826 97.4528 26.2515 97.8456 26.9503C98.2383 27.651 98.8165 28.2112 99.5821 28.6348C100.348 29.0585 101.297 29.2693 102.431 29.2693C103.856 29.2693 105.059 28.9822 106.038 28.4059C106.769 27.9763 107.403 27.3779 107.943 26.6089V28.8416H110.565V19.3507C110.565 18.7042 110.537 18.0998 110.479 17.5377ZM107.581 22.2339C107.559 22.8041 107.465 23.3181 107.306 23.7759C107.192 24.2799 106.951 24.7658 106.582 25.2316C106.213 25.6974 105.727 26.0809 105.122 26.38C104.518 26.6792 103.795 26.8298 102.955 26.8298C102.321 26.8298 101.801 26.7294 101.396 26.5306C100.99 26.3299 100.687 26.0608 100.489 25.7235C100.29 25.3862 100.19 25.0167 100.19 24.6172C100.19 24.2176 100.284 23.8602 100.467 23.5751C100.651 23.29 100.902 23.0471 101.219 22.8483C101.536 22.6475 101.897 22.4769 102.303 22.3343C102.784 22.1817 103.334 22.0512 103.954 21.9408C104.572 21.8324 105.264 21.7199 106.03 21.6055C106.522 21.5312 107.046 21.4529 107.609 21.3686C107.605 21.6195 107.595 21.9087 107.581 22.2339Z" fill="white"/>
<path d="M111.119 28.8417L116.845 21.0494L111.247 13.4277H114.762L118.574 18.7223L122.344 13.4277H125.859L120.26 21.0494L126 28.8417H122.471L118.574 23.3744L114.648 28.8417H111.119Z" fill="white"/>
</svg>
