<svg width="15" height="15" viewBox="0 0 15 15" fill="none" xmlns="http://www.w3.org/2000/svg">
<path d="M7.31571 0.460938C9.21095 0.460938 9.44741 0.467913 10.191 0.50279C10.9339 0.537668 11.4396 0.654158 11.8846 0.82715C12.345 1.00433 12.7329 1.24428 13.1207 1.63142C13.4754 1.98012 13.7499 2.40192 13.925 2.86747C14.0973 3.31181 14.2145 3.81823 14.2493 4.56112C14.2821 5.3047 14.2912 5.54117 14.2912 7.43641C14.2912 9.33164 14.2842 9.56811 14.2493 10.3117C14.2145 11.0546 14.0973 11.5603 13.925 12.0053C13.7504 12.4711 13.4758 12.8931 13.1207 13.2414C12.7719 13.596 12.3501 13.8704 11.8846 14.0457C11.4403 14.218 10.9339 14.3351 10.191 14.37C9.44741 14.4028 9.21095 14.4119 7.31571 14.4119C5.42048 14.4119 5.18401 14.4049 4.44042 14.37C3.69753 14.3351 3.19181 14.218 2.74678 14.0457C2.28104 13.8709 1.85917 13.5964 1.51072 13.2414C1.15596 12.8928 0.881489 12.4709 0.706453 12.0053C0.533461 11.561 0.416971 11.0546 0.382093 10.3117C0.349309 9.56811 0.34024 9.33164 0.34024 7.43641C0.34024 5.54117 0.347216 5.3047 0.382093 4.56112C0.416971 3.81753 0.533461 3.31251 0.706453 2.86747C0.881004 2.40164 1.15554 1.97972 1.51072 1.63142C1.85927 1.27653 2.28112 1.00205 2.74678 0.82715C3.19181 0.654158 3.69684 0.537668 4.44042 0.50279C5.18401 0.470006 5.42048 0.460938 7.31571 0.460938ZM7.31571 3.94867C6.39071 3.94867 5.50359 4.31613 4.84951 4.97021C4.19543 5.62428 3.82798 6.5114 3.82798 7.43641C3.82798 8.36141 4.19543 9.24853 4.84951 9.90261C5.50359 10.5567 6.39071 10.9241 7.31571 10.9241C8.24072 10.9241 9.12783 10.5567 9.78191 9.90261C10.436 9.24853 10.8034 8.36141 10.8034 7.43641C10.8034 6.5114 10.436 5.62428 9.78191 4.97021C9.12783 4.31613 8.24072 3.94867 7.31571 3.94867ZM11.8498 3.77429C11.8498 3.54303 11.7579 3.32125 11.5944 3.15774C11.4309 2.99422 11.2091 2.90235 10.9778 2.90235C10.7466 2.90235 10.5248 2.99422 10.3613 3.15774C10.1978 3.32125 10.1059 3.54303 10.1059 3.77429C10.1059 4.00554 10.1978 4.22732 10.3613 4.39084C10.5248 4.55436 10.7466 4.64622 10.9778 4.64622C11.2091 4.64622 11.4309 4.55436 11.5944 4.39084C11.7579 4.22732 11.8498 4.00554 11.8498 3.77429ZM7.31571 5.34377C7.87071 5.34377 8.40299 5.56424 8.79543 5.95669C9.18788 6.34913 9.40835 6.8814 9.40835 7.43641C9.40835 7.99141 9.18788 8.52368 8.79543 8.91613C8.40299 9.30857 7.87071 9.52905 7.31571 9.52905C6.76071 9.52905 6.22844 9.30857 5.83599 8.91613C5.44354 8.52368 5.22307 7.99141 5.22307 7.43641C5.22307 6.8814 5.44354 6.34913 5.83599 5.95669C6.22844 5.56424 6.76071 5.34377 7.31571 5.34377Z" fill="white"/>
</svg>
