<svg width="20" height="16" viewBox="0 0 20 16" fill="none" xmlns="http://www.w3.org/2000/svg">
<path d="M19.1825 1.84645C18.4765 2.16958 17.7154 2.38192 16.9269 2.48347C17.7338 1.99416 18.3573 1.21866 18.6507 0.286199C17.8896 0.747811 17.0461 1.07094 16.1566 1.25558C15.4322 0.461612 14.4144 0 13.2591 0C11.1042 0 9.3437 1.77259 9.3437 3.96063C9.3437 4.27453 9.38037 4.57919 9.44456 4.86539C6.18023 4.69921 3.2735 3.1205 1.33874 0.729347C0.999473 1.31098 0.806914 1.99416 0.806914 2.71428C0.806914 4.08988 1.49462 5.30854 2.55828 6.00096C1.90725 6.00096 1.30207 5.81631 0.770236 5.53934V5.56704C0.770236 7.48735 2.12732 9.09376 3.92454 9.45381C3.34753 9.6128 2.74176 9.63492 2.15483 9.51844C2.40388 10.3055 2.89163 10.9941 3.54952 11.4876C4.20741 11.9811 5.00236 12.2546 5.82262 12.2696C4.43219 13.3779 2.70866 13.977 0.935287 13.9684C0.623524 13.9684 0.311762 13.9499 0 13.913C1.7422 15.0393 3.8145 15.6948 6.03351 15.6948C13.2591 15.6948 17.2294 9.65692 17.2294 4.42224C17.2294 4.24683 17.2294 4.08065 17.2203 3.90524C17.9905 3.3513 18.6507 2.64965 19.1825 1.84645Z" fill="white"/>
</svg>
